# xmcd
#
# Track frame offsets:
# 150
# 81349
# 117527
# 148775
# 176491
# 199844
# 240140
# 293372
#
# Disc length: 4481 seconds
#
#
# Revision: 0
# Processed by: cddbd v1.5.2PL0 Copyright (c) Steve Scherf et al.
# Submitted via: Nero 7, 11, 10, 0 
#
DISCID=6a117f08
DTITLE=Tiny Grimes - Callin' The Blues
DYEAR=1958
DGENRE=Blues
TTITLE0=Marchin' Along
TTITLE1=Soul Station
TTITLE2=Blues Wail
TTITLE3=A Smooth One
TTITLE4=Tiny Bean
TTITLE5=Callin' The Blues
TTITLE6=Blue Tiny
TTITLE7=Grimes' Time
EXTD=
EXTT0=Marchin' Along
EXTT1=Soul Station
EXTT2=Blues Wail
EXTT3=A Smooth One
EXTT4=Tiny Bean
EXTT5=Callin' The Blues
EXTT6=Blue Tiny
EXTT7=Grimes' Time
PLAYORDER=
